<mxfile host="Electron" modified="2023-10-09T10:39:45.087Z" agent="Mozilla/5.0 (Macintosh; Intel Mac OS X 10_15_7) AppleWebKit/537.36 (KHTML, like Gecko) draw.io/21.6.8 Chrome/114.0.5735.289 Electron/25.5.0 Safari/537.36" etag="F6Za7MlI6LzKmxNWGQ9-" version="21.6.8" type="device">
  <diagram name="Page-1" id="Q_TO3Xd1zAHLZvV0hwMh">
    <mxGraphModel dx="954" dy="601" grid="1" gridSize="10" guides="1" tooltips="1" connect="1" arrows="1" fold="1" page="1" pageScale="1" pageWidth="827" pageHeight="1169" math="0" shadow="0">
      <root>
        <mxCell id="0" />
        <mxCell id="1" parent="0" />
        <mxCell id="ICe_7iCsAfX1sD79KOfu-6" style="edgeStyle=orthogonalEdgeStyle;rounded=0;orthogonalLoop=1;jettySize=auto;html=1;entryX=0.5;entryY=1;entryDx=0;entryDy=0;endArrow=block;endFill=0;" edge="1" parent="1" source="ICe_7iCsAfX1sD79KOfu-1" target="ICe_7iCsAfX1sD79KOfu-5">
          <mxGeometry relative="1" as="geometry" />
        </mxCell>
        <mxCell id="ICe_7iCsAfX1sD79KOfu-1" value="GenericStack &amp;lt;E&amp;gt;" style="swimlane;fontStyle=1;align=center;verticalAlign=top;childLayout=stackLayout;horizontal=1;startSize=26;horizontalStack=0;resizeParent=1;resizeParentMax=0;resizeLast=0;collapsible=1;marginBottom=0;whiteSpace=wrap;html=1;" vertex="1" parent="1">
          <mxGeometry x="160" y="120" width="160" height="170" as="geometry" />
        </mxCell>
        <mxCell id="ICe_7iCsAfX1sD79KOfu-2" value="+ field: type" style="text;strokeColor=none;fillColor=none;align=left;verticalAlign=top;spacingLeft=4;spacingRight=4;overflow=hidden;rotatable=0;points=[[0,0.5],[1,0.5]];portConstraint=eastwest;whiteSpace=wrap;html=1;" vertex="1" parent="ICe_7iCsAfX1sD79KOfu-1">
          <mxGeometry y="26" width="160" height="26" as="geometry" />
        </mxCell>
        <mxCell id="ICe_7iCsAfX1sD79KOfu-3" value="" style="line;strokeWidth=1;fillColor=none;align=left;verticalAlign=middle;spacingTop=-1;spacingLeft=3;spacingRight=3;rotatable=0;labelPosition=right;points=[];portConstraint=eastwest;strokeColor=inherit;" vertex="1" parent="ICe_7iCsAfX1sD79KOfu-1">
          <mxGeometry y="52" width="160" height="8" as="geometry" />
        </mxCell>
        <mxCell id="ICe_7iCsAfX1sD79KOfu-4" value="+ getSize (): int&lt;br&gt;+ peek (): E&lt;br&gt;+ push (E o): void&lt;br&gt;+ pop (): E&lt;br&gt;+ isEmpty (): boolean" style="text;strokeColor=none;fillColor=none;align=left;verticalAlign=top;spacingLeft=4;spacingRight=4;overflow=hidden;rotatable=0;points=[[0,0.5],[1,0.5]];portConstraint=eastwest;whiteSpace=wrap;html=1;" vertex="1" parent="ICe_7iCsAfX1sD79KOfu-1">
          <mxGeometry y="60" width="160" height="110" as="geometry" />
        </mxCell>
        <mxCell id="ICe_7iCsAfX1sD79KOfu-5" value="java.util.ArrayList&amp;lt;E&amp;gt;" style="html=1;whiteSpace=wrap;" vertex="1" parent="1">
          <mxGeometry x="160" width="160" height="50" as="geometry" />
        </mxCell>
      </root>
    </mxGraphModel>
  </diagram>
</mxfile>
